<svg width="313" height="507" viewBox="0 0 313 507" fill="none" xmlns="http://www.w3.org/2000/svg">
<rect width="313" height="507" fill="url(#paint0_linear_3_27)"/>
<path fill-rule="evenodd" clip-rule="evenodd" d="M205 319.455C205 320.777 203.99 322.286 201.534 323.849C199.125 325.382 195.574 326.799 191.095 328.004C190.999 328.03 190.902 328.056 190.805 328.082C190.859 328.411 190.902 328.745 190.934 329.082C200.229 326.639 206 323.228 206 319.455C206 312.024 183.614 306 156 306C128.386 306 106 312.024 106 319.455C106 323.487 112.589 327.105 123.028 329.571C123.049 329.233 123.081 328.897 123.124 328.566C122.362 328.385 121.622 328.197 120.905 328.004C116.426 326.799 112.875 325.382 110.466 323.849C108.01 322.286 107 320.777 107 319.455C107 318.134 108.01 316.625 110.466 315.062C112.875 313.529 116.426 312.112 120.905 310.907C129.846 308.5 142.255 307 156 307C169.745 307 182.154 308.5 191.095 310.907C195.574 312.112 199.125 313.529 201.534 315.062C203.99 316.625 205 318.134 205 319.455Z" fill="#0F0101" fill-opacity="0.33"/>
<mask id="path-3-inside-1_3_27" fill="white">
<path fill-rule="evenodd" clip-rule="evenodd" d="M203.766 255.85C212.653 245.186 218 231.467 218 216.5C218 182.534 190.466 155 156.5 155C122.534 155 95 182.534 95 216.5C95 227.044 97.6537 236.969 102.33 245.642L102.024 245.64L155.271 329.87L203.766 255.85Z"/>
</mask>
<path d="M203.766 255.85L202.229 254.569L202.156 254.657L202.093 254.754L203.766 255.85ZM102.33 245.642L102.313 247.642L105.695 247.67L104.09 244.693L102.33 245.642ZM102.024 245.64L102.04 243.64L98.3747 243.61L100.333 246.709L102.024 245.64ZM155.271 329.87L153.58 330.939L155.241 333.565L156.944 330.966L155.271 329.87ZM216 216.5C216 230.982 210.829 244.251 202.229 254.569L205.302 257.13C214.478 246.12 220 231.952 220 216.5H216ZM156.5 157C189.361 157 216 183.639 216 216.5H220C220 181.43 191.57 153 156.5 153V157ZM97 216.5C97 183.639 123.639 157 156.5 157V153C121.43 153 93 181.43 93 216.5H97ZM104.09 244.693C99.5675 236.304 97 226.705 97 216.5H93C93 227.384 95.7399 237.634 100.569 246.591L104.09 244.693ZM102.008 247.64L102.313 247.642L102.346 243.642L102.04 243.64L102.008 247.64ZM156.961 328.801L103.714 244.571L100.333 246.709L153.58 330.939L156.961 328.801ZM202.093 254.754L153.598 328.774L156.944 330.966L205.439 256.946L202.093 254.754Z" fill="#0F0101" fill-opacity="0.3" mask="url(#path-3-inside-1_3_27)"/>
<circle cx="156" cy="218" r="49" stroke="#0F0101" stroke-opacity="0.3" stroke-width="2"/>
<path fill-rule="evenodd" clip-rule="evenodd" d="M122 255.085V253C122 234.222 137.222 219 156 219C174.778 219 190 234.222 190 253V254.203C189.355 254.832 188.688 255.444 188 256.036V253C188 235.327 173.673 221 156 221C138.327 221 124 235.327 124 253V256.818C123.314 256.258 122.647 255.68 122 255.085Z" fill="#0F0101" fill-opacity="0.34"/>
<circle cx="156" cy="198" r="14" stroke="#0F0101" stroke-opacity="0.3" stroke-width="2"/>
<line x1="138" y1="241" x2="138" y2="261" stroke="#0F0101" stroke-opacity="0.3" stroke-width="2"/>
<line x1="173" y1="242" x2="173" y2="262" stroke="#0F0101" stroke-opacity="0.3" stroke-width="2"/>
<line y1="-0.5" x2="22.7524" y2="-0.5" transform="matrix(0.66463 0.747173 -0.93875 0.3446 140 224)" stroke="#0F0101" stroke-opacity="0.3"/>
<line y1="-0.5" x2="22.7524" y2="-0.5" transform="matrix(-0.66463 0.747173 0.93875 0.3446 171 224)" stroke="#0F0101" stroke-opacity="0.3"/>
<defs>
<linearGradient id="paint0_linear_3_27" x1="72" y1="-1.17632e-06" x2="246" y2="507" gradientUnits="userSpaceOnUse">
<stop stop-color="#97EEFA"/>
<stop offset="0.331224" stop-color="#FEFEFE"/>
<stop offset="0.648677" stop-color="white"/>
<stop offset="1" stop-color="#9AFCEB"/>
</linearGradient>
</defs>
</svg>
